<svg width="185" height="22" viewBox="0 0 185 22" fill="none" xmlns="http://www.w3.org/2000/svg">
<path d="M104.44 18.257V10.508L103.432 10.391C103.306 10.361 103.201 10.316 103.117 10.256C103.039 10.19 103 10.097 103 9.977V9.32H104.44V8.438C104.44 7.916 104.512 7.454 104.656 7.052C104.806 6.644 105.016 6.302 105.286 6.026C105.562 5.744 105.892 5.531 106.276 5.387C106.66 5.243 107.092 5.171 107.572 5.171C107.98 5.171 108.358 5.231 108.706 5.351L108.67 6.152C108.664 6.272 108.613 6.344 108.517 6.368C108.421 6.392 108.286 6.404 108.112 6.404H107.833C107.557 6.404 107.305 6.44 107.077 6.512C106.855 6.584 106.663 6.701 106.501 6.863C106.339 7.025 106.213 7.238 106.123 7.502C106.039 7.766 105.997 8.093 105.997 8.483V9.32H108.634V10.481H106.051V18.257H104.44Z" fill="#0C0D0D"/>
<path d="M113.834 8.996C114.5 8.996 115.1 9.107 115.634 9.329C116.174 9.551 116.63 9.866 117.002 10.274C117.38 10.682 117.668 11.177 117.866 11.759C118.07 12.335 118.172 12.98 118.172 13.694C118.172 14.414 118.07 15.062 117.866 15.638C117.668 16.214 117.38 16.706 117.002 17.114C116.63 17.522 116.174 17.837 115.634 18.059C115.1 18.275 114.5 18.383 113.834 18.383C113.168 18.383 112.565 18.275 112.025 18.059C111.491 17.837 111.035 17.522 110.657 17.114C110.279 16.706 109.988 16.214 109.784 15.638C109.58 15.062 109.478 14.414 109.478 13.694C109.478 12.98 109.58 12.335 109.784 11.759C109.988 11.177 110.279 10.682 110.657 10.274C111.035 9.866 111.491 9.551 112.025 9.329C112.565 9.107 113.168 8.996 113.834 8.996ZM113.834 17.132C114.734 17.132 115.406 16.832 115.85 16.232C116.294 15.626 116.516 14.783 116.516 13.703C116.516 12.617 116.294 11.771 115.85 11.165C115.406 10.559 114.734 10.256 113.834 10.256C113.378 10.256 112.982 10.334 112.646 10.49C112.31 10.646 112.028 10.871 111.8 11.165C111.578 11.459 111.41 11.822 111.296 12.254C111.188 12.68 111.134 13.163 111.134 13.703C111.134 14.243 111.188 14.726 111.296 15.152C111.41 15.578 111.578 15.938 111.8 16.232C112.028 16.52 112.31 16.742 112.646 16.898C112.982 17.054 113.378 17.132 113.834 17.132Z" fill="#0C0D0D"/>
<path d="M120.146 18.257V9.14H121.064C121.238 9.14 121.358 9.173 121.424 9.239C121.49 9.305 121.535 9.419 121.559 9.581L121.667 11.003C121.979 10.367 122.363 9.872 122.819 9.518C123.281 9.158 123.821 8.978 124.439 8.978C124.691 8.978 124.919 9.008 125.123 9.068C125.327 9.122 125.516 9.2 125.69 9.302L125.483 10.499C125.441 10.649 125.348 10.724 125.204 10.724C125.12 10.724 124.991 10.697 124.817 10.643C124.643 10.583 124.4 10.553 124.088 10.553C123.53 10.553 123.062 10.715 122.684 11.039C122.312 11.363 122 11.834 121.748 12.452V18.257H120.146Z" fill="#0C0D0D"/>
<path d="M131.139 18.257V5.36H135.252C136.044 5.36 136.725 5.438 137.295 5.594C137.871 5.75 138.342 5.972 138.708 6.26C139.08 6.548 139.353 6.902 139.527 7.322C139.707 7.736 139.797 8.204 139.797 8.726C139.797 9.044 139.746 9.35 139.644 9.644C139.548 9.938 139.398 10.211 139.194 10.463C138.996 10.715 138.744 10.94 138.438 11.138C138.138 11.336 137.784 11.498 137.376 11.624C138.318 11.81 139.029 12.149 139.509 12.641C139.989 13.133 140.229 13.781 140.229 14.585C140.229 15.131 140.127 15.629 139.923 16.079C139.725 16.529 139.431 16.916 139.041 17.24C138.657 17.564 138.183 17.816 137.619 17.996C137.061 18.17 136.422 18.257 135.702 18.257H131.139ZM132.885 12.38V16.871H135.675C136.173 16.871 136.599 16.814 136.953 16.7C137.313 16.586 137.607 16.427 137.835 16.223C138.069 16.013 138.24 15.767 138.348 15.485C138.456 15.197 138.51 14.882 138.51 14.54C138.51 13.874 138.273 13.349 137.799 12.965C137.331 12.575 136.62 12.38 135.666 12.38H132.885ZM132.885 11.138H135.189C135.681 11.138 136.107 11.084 136.467 10.976C136.827 10.868 137.124 10.718 137.358 10.526C137.598 10.334 137.775 10.103 137.889 9.833C138.003 9.557 138.06 9.257 138.06 8.933C138.06 8.177 137.832 7.622 137.376 7.268C136.92 6.914 136.212 6.737 135.252 6.737H132.885V11.138Z" fill="#0C0D0D"/>
<path d="M142.541 18.257V9.14H143.459C143.633 9.14 143.753 9.173 143.819 9.239C143.885 9.305 143.93 9.419 143.954 9.581L144.062 11.003C144.374 10.367 144.758 9.872 145.214 9.518C145.676 9.158 146.216 8.978 146.834 8.978C147.086 8.978 147.314 9.008 147.518 9.068C147.722 9.122 147.911 9.2 148.085 9.302L147.878 10.499C147.836 10.649 147.743 10.724 147.599 10.724C147.515 10.724 147.386 10.697 147.212 10.643C147.038 10.583 146.795 10.553 146.483 10.553C145.925 10.553 145.457 10.715 145.079 11.039C144.707 11.363 144.395 11.834 144.143 12.452V18.257H142.541Z" fill="#0C0D0D"/>
<path d="M156.163 18.257H155.452C155.296 18.257 155.17 18.233 155.074 18.185C154.978 18.137 154.915 18.035 154.885 17.879L154.705 17.033C154.465 17.249 154.231 17.444 154.003 17.618C153.775 17.786 153.535 17.93 153.283 18.05C153.031 18.164 152.761 18.251 152.473 18.311C152.191 18.371 151.876 18.401 151.528 18.401C151.174 18.401 150.841 18.353 150.529 18.257C150.223 18.155 149.956 18.005 149.728 17.807C149.5 17.609 149.317 17.36 149.179 17.06C149.047 16.754 148.981 16.394 148.981 15.98C148.981 15.62 149.08 15.275 149.278 14.945C149.476 14.609 149.794 14.312 150.232 14.054C150.676 13.796 151.255 13.586 151.969 13.424C152.683 13.256 153.556 13.16 154.588 13.136V12.425C154.588 11.717 154.435 11.183 154.129 10.823C153.829 10.457 153.382 10.274 152.788 10.274C152.398 10.274 152.068 10.325 151.798 10.427C151.534 10.523 151.303 10.634 151.105 10.76C150.913 10.88 150.745 10.991 150.601 11.093C150.463 11.189 150.325 11.237 150.187 11.237C150.079 11.237 149.983 11.21 149.899 11.156C149.821 11.096 149.758 11.024 149.71 10.94L149.422 10.427C149.926 9.941 150.469 9.578 151.051 9.338C151.633 9.098 152.278 8.978 152.986 8.978C153.496 8.978 153.949 9.062 154.345 9.23C154.741 9.398 155.074 9.632 155.344 9.932C155.614 10.232 155.818 10.595 155.956 11.021C156.094 11.447 156.163 11.915 156.163 12.425V18.257ZM152.005 17.276C152.287 17.276 152.545 17.249 152.779 17.195C153.013 17.135 153.232 17.054 153.436 16.952C153.646 16.844 153.844 16.715 154.03 16.565C154.222 16.415 154.408 16.244 154.588 16.052V14.153C153.85 14.177 153.223 14.237 152.707 14.333C152.191 14.423 151.771 14.543 151.447 14.693C151.123 14.843 150.886 15.02 150.736 15.224C150.592 15.428 150.52 15.656 150.52 15.908C150.52 16.148 150.559 16.355 150.637 16.529C150.715 16.703 150.82 16.847 150.952 16.961C151.084 17.069 151.24 17.15 151.42 17.204C151.6 17.252 151.795 17.276 152.005 17.276Z" fill="#0C0D0D"/>
<path d="M158.59 18.257V9.14H159.544C159.772 9.14 159.916 9.251 159.976 9.473L160.102 10.463C160.498 10.025 160.939 9.671 161.425 9.401C161.917 9.131 162.484 8.996 163.126 8.996C163.624 8.996 164.062 9.08 164.44 9.248C164.824 9.41 165.142 9.644 165.394 9.95C165.652 10.25 165.847 10.613 165.979 11.039C166.111 11.465 166.177 11.936 166.177 12.452V18.257H164.575V12.452C164.575 11.762 164.416 11.228 164.098 10.85C163.786 10.466 163.306 10.274 162.658 10.274C162.184 10.274 161.74 10.388 161.326 10.616C160.918 10.844 160.54 11.153 160.192 11.543V18.257H158.59Z" fill="#0C0D0D"/>
<path d="M175.009 18.257C174.781 18.257 174.637 18.146 174.577 17.924L174.433 16.817C174.043 17.291 173.596 17.672 173.092 17.96C172.594 18.242 172.021 18.383 171.373 18.383C170.851 18.383 170.377 18.284 169.951 18.086C169.525 17.882 169.162 17.585 168.862 17.195C168.562 16.805 168.331 16.319 168.169 15.737C168.007 15.155 167.926 14.486 167.926 13.73C167.926 13.058 168.016 12.434 168.196 11.858C168.376 11.276 168.634 10.772 168.97 10.346C169.312 9.92 169.726 9.587 170.212 9.347C170.698 9.101 171.25 8.978 171.868 8.978C172.426 8.978 172.903 9.074 173.299 9.266C173.695 9.452 174.049 9.716 174.361 10.058V5H175.963V18.257H175.009ZM171.904 17.087C172.426 17.087 172.882 16.967 173.272 16.727C173.668 16.487 174.031 16.148 174.361 15.71V11.3C174.067 10.904 173.743 10.628 173.389 10.472C173.041 10.31 172.654 10.229 172.228 10.229C171.376 10.229 170.722 10.532 170.266 11.138C169.81 11.744 169.582 12.608 169.582 13.73C169.582 14.324 169.633 14.834 169.735 15.26C169.837 15.68 169.987 16.028 170.185 16.304C170.383 16.574 170.626 16.772 170.914 16.898C171.202 17.024 171.532 17.087 171.904 17.087Z" fill="#0C0D0D"/>
<path d="M183.866 10.643C183.794 10.775 183.683 10.841 183.533 10.841C183.443 10.841 183.341 10.808 183.227 10.742C183.113 10.676 182.972 10.604 182.804 10.526C182.642 10.442 182.447 10.367 182.219 10.301C181.991 10.229 181.721 10.193 181.409 10.193C181.139 10.193 180.896 10.229 180.68 10.301C180.464 10.367 180.278 10.46 180.122 10.58C179.972 10.7 179.855 10.841 179.771 11.003C179.693 11.159 179.654 11.33 179.654 11.516C179.654 11.75 179.72 11.945 179.852 12.101C179.99 12.257 180.17 12.392 180.392 12.506C180.614 12.62 180.866 12.722 181.148 12.812C181.43 12.896 181.718 12.989 182.012 13.091C182.312 13.187 182.603 13.295 182.885 13.415C183.167 13.535 183.419 13.685 183.641 13.865C183.863 14.045 184.04 14.267 184.172 14.531C184.31 14.789 184.379 15.101 184.379 15.467C184.379 15.887 184.304 16.277 184.154 16.637C184.004 16.991 183.782 17.3 183.488 17.564C183.194 17.822 182.834 18.026 182.408 18.176C181.982 18.326 181.49 18.401 180.932 18.401C180.296 18.401 179.72 18.299 179.204 18.095C178.688 17.885 178.25 17.618 177.89 17.294L178.268 16.682C178.316 16.604 178.373 16.544 178.439 16.502C178.505 16.46 178.592 16.439 178.7 16.439C178.808 16.439 178.922 16.481 179.042 16.565C179.162 16.649 179.306 16.742 179.474 16.844C179.648 16.946 179.855 17.039 180.095 17.123C180.341 17.207 180.647 17.249 181.013 17.249C181.325 17.249 181.598 17.21 181.832 17.132C182.066 17.048 182.261 16.937 182.417 16.799C182.573 16.661 182.687 16.502 182.759 16.322C182.837 16.142 182.876 15.95 182.876 15.746C182.876 15.494 182.807 15.287 182.669 15.125C182.537 14.957 182.36 14.816 182.138 14.702C181.916 14.582 181.661 14.48 181.373 14.396C181.091 14.306 180.8 14.213 180.5 14.117C180.206 14.021 179.915 13.913 179.627 13.793C179.345 13.667 179.093 13.511 178.871 13.325C178.649 13.139 178.469 12.911 178.331 12.641C178.199 12.365 178.133 12.032 178.133 11.642C178.133 11.294 178.205 10.961 178.349 10.643C178.493 10.319 178.703 10.037 178.979 9.797C179.255 9.551 179.594 9.356 179.996 9.212C180.398 9.068 180.857 8.996 181.373 8.996C181.973 8.996 182.51 9.092 182.984 9.284C183.464 9.47 183.878 9.728 184.226 10.058L183.866 10.643Z" fill="#0C0D0D"/>
<path d="M12.705 0H5.8431V5.14609H12.705V0V0ZM84.6581 12.8557C84.6581 12.8557 83.8055 12.6814 83.2816 12.5742C82.7578 12.4676 82.4344 12.1998 82.4344 11.7502C82.4344 11.2255 82.9061 10.8319 83.5652 10.8319C84.4893 10.8319 84.8559 11.3068 84.9451 11.8616H87.1056C87.0878 10.5989 86.08 8.93938 83.6016 8.93938C81.6058 8.93938 80.1373 10.3072 80.1373 11.9558C80.1373 13.2492 80.9467 14.3171 82.7358 14.7106L84.0176 14.9921C84.733 15.1417 85.0158 15.4793 85.0158 15.8912C85.0158 16.3784 84.562 16.8095 83.7334 16.8095C82.7338 16.8095 82.1914 16.2445 82.0637 15.5879H79.8373C79.9615 16.9653 80.966 18.7212 83.7526 18.7212C86.1816 18.7212 87.4071 17.1846 87.4071 15.6849C87.4071 14.3362 86.4844 13.2301 84.6581 12.8557ZM93.5618 8.97696C92.6762 8.97627 91.6594 9.27553 91.056 9.98745L91.0601 5.1536H88.5556L88.5453 18.437L91.0498 18.4383L91.0539 13.023C91.1116 12.0112 91.7336 11.2241 92.7874 11.2255C93.993 11.2261 94.5003 12.0324 94.4997 13.0627L94.4955 18.4411L97 18.4431L97.0048 12.6336C97.0062 10.6099 95.9153 8.97901 93.5618 8.97696ZM65.4798 18.4397H67.9843V5.1536H65.4798V18.4397ZM76.2316 13.8299C76.2316 12.1998 75.1963 11.2439 73.9159 11.2439C72.6355 11.2439 71.6188 12.1998 71.6188 13.8299C71.6188 15.4793 72.6355 16.4344 73.9159 16.4344C75.1963 16.4344 76.2316 15.4601 76.2316 13.8299ZM76.2694 9.22019H78.6983V18.4397H76.1945V17.3192C75.7661 18.0578 74.8009 18.6645 73.5205 18.6645C70.9034 18.6645 69.1521 16.6032 69.1521 13.8115C69.1521 11.0752 70.7146 9.01385 73.4264 9.01385C74.8194 9.01385 75.8272 9.65677 76.2694 10.3632V9.22019V9.22019ZM61.8452 13.8299C61.8452 12.1998 60.8285 11.2439 59.5481 11.2439C58.2677 11.2439 57.2324 12.1998 57.2324 13.8299C57.2324 15.4601 58.2677 16.4344 59.5481 16.4344C60.8285 16.4344 61.8452 15.4793 61.8452 13.8299ZM64.312 13.8115C64.312 16.6032 62.5613 18.6645 59.9435 18.6645C58.6631 18.6645 57.7219 18.1589 57.2702 17.5406V22H54.7657V9.22019H57.1946V10.3632C57.6086 9.6513 58.6446 9.01385 60.0376 9.01385C62.7494 9.01385 64.312 11.0752 64.312 13.8115ZM50.9067 12.8557C50.9067 12.8557 50.054 12.6814 49.5308 12.5742C49.007 12.4676 48.683 12.1998 48.683 11.7502C48.683 11.2255 49.1546 10.8319 49.8137 10.8319C50.7378 10.8319 51.1051 11.3068 51.1936 11.8616H53.3549C53.337 10.5989 52.3285 8.93938 49.8508 8.93938C47.855 8.93938 46.3858 10.3072 46.3858 11.9558C46.3858 13.2492 47.1959 14.3171 48.9844 14.7106L50.2668 14.9921C50.9822 15.1417 51.2643 15.4793 51.2643 15.8912C51.2643 16.3784 50.8112 16.8095 49.9826 16.8095C48.983 16.8095 48.4406 16.2445 48.3129 15.5879H46.0858C46.2101 16.9653 47.2145 18.7212 50.0011 18.7212C52.4308 18.7212 53.6555 17.1846 53.6555 15.6849C53.6555 14.3362 52.7335 13.2301 50.9067 12.8557ZM41.7174 8.97627C40.7192 8.97627 39.6083 9.40739 39.0433 10.3632V9.22019H36.6144V18.4397H39.1188V13.1365C39.1188 12.0686 39.7587 11.2255 40.851 11.2255C42.0558 11.2255 42.5646 12.031 42.5646 13.062V18.4397H45.069V12.6309C45.069 10.6065 44.0145 8.97627 41.7174 8.97627ZM32.4443 13.4378C32.4443 15.1807 31.2889 16.2096 29.7071 16.2096C28.1631 16.2096 26.9891 15.1807 26.9891 13.4378V5.1536H24.3906V13.4173C24.3906 16.6776 26.7152 18.7396 29.7071 18.7396C32.7224 18.7396 35.0429 16.6776 35.0429 13.4173V5.1536H32.4443V13.4378V13.4378ZM12.705 8.16391H18.5481V18.4554H0V8.16391H5.8431V13.31H12.705V8.16391V8.16391Z" fill="black"/>
</svg>
