<?xml version="1.0" standalone="no"?>
<!DOCTYPE svg PUBLIC "-//W3C//DTD SVG 20010904//EN"
 "http://www.w3.org/TR/2001/REC-SVG-20010904/DTD/svg10.dtd">
<svg version="1.0" xmlns="http://www.w3.org/2000/svg"
 width="1084.000000pt" height="1280.000000pt" viewBox="0 0 1084.000000 1280.000000"
 preserveAspectRatio="xMidYMid meet">
<metadata>
Created by potrace 1.15, written by Peter Selinger 2001-2017
</metadata>
<g transform="translate(0.000000,1280.000000) scale(0.100000,-0.100000)"
fill="#ffffff" stroke="none">
<path d="M9675 12739 c-829 -21 -1586 -94 -2120 -205 -798 -166 -1378 -476
-1935 -1034 -352 -352 -553 -647 -740 -1085 -73 -171 -107 -230 -135 -230 -59
0 -57 155 9 619 64 449 79 594 80 806 1 269 -12 288 -192 277 -164 -10 -338
-60 -687 -199 -110 -43 -284 -104 -387 -134 -102 -30 -204 -61 -225 -70 -76
-32 -93 -67 -48 -102 13 -11 22 -22 19 -25 -3 -3 -1 -14 5 -25 22 -42 120 -62
409 -82 153 -11 193 -22 231 -63 22 -25 24 -32 18 -99 -11 -122 -127 -569
-220 -843 -167 -492 -354 -802 -777 -1285 -160 -182 -267 -320 -322 -412 -46
-78 -79 -105 -195 -166 -141 -72 -251 -106 -667 -201 -369 -85 -457 -117 -644
-235 -199 -124 -248 -144 -595 -247 -131 -38 -263 -81 -293 -94 -133 -59 -163
-116 -133 -254 54 -254 567 -429 1654 -565 290 -36 421 -47 689 -54 l238 -7
32 -37 c30 -34 35 -51 60 -196 57 -327 43 -389 -172 -767 -241 -425 -325 -629
-379 -925 -24 -131 -24 -446 0 -584 31 -178 87 -376 130 -466 50 -102 144
-203 255 -274 79 -50 92 -56 71 -28 -8 10 10 -6 38 -37 29 -31 52 -61 50 -67
-3 -15 97 -165 159 -239 143 -168 340 -255 580 -255 114 0 151 -14 179 -67 30
-56 26 -241 -13 -528 -45 -331 -52 -415 -52 -624 1 -371 75 -710 239 -1079 41
-93 66 -139 87 -157 6 -5 27 -38 48 -71 79 -134 87 -94 25 132 -65 237 -108
440 -120 564 -13 145 0 315 47 604 82 507 70 654 -91 1172 -14 43 -12 45 36
35 4 0 12 -13 18 -28 14 -36 116 -492 132 -591 6 -43 16 -82 21 -88 12 -16 11
-275 -2 -381 -6 -49 -22 -160 -35 -248 -48 -317 -54 -530 -19 -740 14 -85 26
-116 40 -103 3 4 14 96 25 205 26 280 42 364 120 632 86 293 97 354 93 551 -4
311 -58 514 -196 748 -49 84 -58 106 -47 113 23 15 36 10 62 -20 25 -31 86
-190 107 -281 28 -127 43 -180 51 -180 4 0 19 -36 34 -80 80 -241 77 -412 -15
-845 -49 -229 -50 -239 -41 -253 10 -16 109 90 149 160 85 148 233 522 264
663 25 117 34 303 19 376 -25 122 -101 238 -277 426 l-108 116 23 18 c59 48
206 56 292 17 180 -83 421 -398 648 -848 154 -305 277 -597 576 -1370 143
-368 207 -518 228 -535 7 -5 23 -25 36 -42 74 -106 68 51 -14 387 -44 179 -68
262 -206 710 -285 932 -340 1261 -249 1513 74 204 200 326 455 442 478 217
657 336 940 626 150 154 304 337 298 355 -2 6 7 19 19 30 22 19 23 19 8 -1
-14 -18 -14 -19 2 -6 10 7 16 16 13 20 -2 4 28 45 66 92 184 221 326 424 395
566 25 51 44 102 42 115 -2 18 -23 -7 -97 -116 -202 -295 -391 -525 -607 -736
-192 -187 -341 -298 -524 -390 -225 -113 -388 -154 -925 -235 -507 -77 -572
-93 -1145 -285 -535 -179 -753 -233 -990 -247 -243 -14 -403 50 -638 253 -188
161 -397 403 -500 580 -85 144 -131 326 -117 467 11 114 63 170 121 132 50
-32 135 -180 209 -360 20 -49 50 -103 66 -120 l30 -30 29 33 c16 18 36 57 46
85 28 88 93 202 150 265 30 33 96 91 147 129 50 39 171 128 267 200 180 133
256 204 246 229 -3 8 16 35 44 65 117 122 30 99 -355 -94 -466 -233 -641 -275
-796 -190 -63 34 -103 85 -119 154 -26 109 5 204 170 526 115 225 170 343 175
377 2 12 19 59 38 106 19 47 54 139 77 205 23 66 46 125 50 130 12 15 76 256
99 370 54 269 64 415 36 533 -27 113 -65 172 -248 383 -55 63 -116 144 -138
180 -104 178 -128 397 -60 544 11 22 33 70 50 106 44 95 91 149 255 293 193
170 308 299 475 534 198 279 334 549 417 825 28 95 116 503 178 832 99 519
146 720 188 799 16 31 28 77 17 71 -5 -4 -9 -2 -9 4 0 19 62 71 98 81 46 12
153 13 133 1 -26 -17 -2 -40 56 -56 155 -43 175 -55 241 -138 42 -54 -14 -457
-110 -791 -123 -430 -246 -625 -499 -791 -115 -76 -161 -114 -153 -127 3 -4
25 -8 48 -8 35 0 45 -4 49 -20 7 -28 58 -26 254 6 194 32 327 35 498 10 226
-32 272 -2 330 220 34 127 66 211 119 309 236 444 684 951 1149 1299 625 469
1221 645 2627 775 668 62 1229 85 1287 52 21 -11 -122 -58 -497 -162 -506
-139 -709 -211 -1140 -402 -426 -189 -502 -205 -810 -171 -164 17 -263 13
-373 -17 -221 -61 -523 -266 -820 -558 -179 -175 -283 -297 -492 -576 -87
-115 -187 -245 -222 -287 -136 -164 -268 -260 -455 -334 -53 -21 -95 -41 -92
-45 2 -4 26 -11 52 -14 70 -10 80 -14 78 -32 -2 -32 47 -42 240 -53 480 -26
650 -62 1098 -231 334 -127 491 -183 641 -229 210 -64 224 -73 125 -83 -153
-16 -337 -85 -403 -150 -41 -41 -67 -114 -67 -186 0 -114 70 -461 122 -611 75
-214 175 -328 230 -262 42 51 46 99 22 272 -23 166 -17 241 26 326 28 55 45
74 84 99 47 29 54 30 160 30 118 0 189 -17 301 -73 168 -83 335 -241 335 -317
0 -81 -176 -251 -388 -373 -182 -106 -177 -94 -118 -256 5 -17 89 -111 186
-211 202 -209 302 -335 507 -635 350 -513 533 -713 767 -835 71 -37 129 -50
90 -20 -10 8 100 -43 246 -114 360 -175 423 -200 205 -80 -234 129 -451 288
-604 440 -115 115 -181 203 -374 494 -165 251 -262 378 -419 555 -123 138
-178 209 -178 226 0 33 47 79 194 188 232 174 299 256 326 403 23 126 2 173
-221 509 -233 351 -329 464 -476 558 -101 65 -190 101 -588 238 -816 281 -989
356 -1011 443 -25 101 176 415 470 734 355 387 739 662 1281 919 266 125 397
177 1010 397 510 183 668 247 698 283 10 13 8 14 -18 8 -59 -15 -17 4 153 68
142 54 176 64 197 56 37 -14 113 5 182 46 64 39 83 58 83 87 0 10 9 30 20 44
67 85 -44 118 -450 133 -135 5 -252 9 -260 8 -8 -1 -145 -5 -305 -9z m-7422
-4536 c-13 -2 -23 -8 -23 -13 0 -17 40 -20 129 -10 72 9 96 9 118 -2 28 -13
28 -14 35 -138 4 -69 11 -147 16 -175 l8 -50 -60 30 c-58 29 -66 30 -186 29
-133 -1 -281 -23 -520 -76 -122 -27 -230 -58 -567 -163 -192 -59 -414 -95
-592 -95 l-64 0 19 21 c10 12 36 30 57 41 53 26 40 34 -23 13 -28 -9 -53 -15
-55 -13 -4 4 302 105 345 115 8 2 -3 -5 -25 -16 -38 -19 -39 -20 -12 -20 84
-3 384 87 527 157 94 47 380 221 380 232 0 4 -10 6 -22 3 -20 -4 -21 -3 -6 6
37 24 471 131 523 129 17 -1 16 -1 -2 -5z m5087 -3956 c0 -2 -17 -19 -37 -38
l-38 -34 34 38 c33 34 41 42 41 34z m-4519 -924 c13 -16 12 -17 -3 -4 -17 13
-22 21 -14 21 2 0 10 -8 17 -17z"/>
<path d="M5797 8105 c-27 -7 -73 -26 -104 -41 -139 -68 -478 -386 -446 -418 4
-3 20 -6 36 -6 17 0 27 -3 24 -7 -4 -3 -2 -12 5 -20 9 -11 39 -12 152 -7 164
8 183 4 397 -82 171 -68 257 -87 369 -81 152 8 322 86 453 207 62 57 107 123
93 137 -2 3 2 21 11 40 39 94 -33 138 -347 217 -283 72 -523 94 -643 61z"/>
</g>
</svg>
