<svg xmlns="http://www.w3.org/2000/svg" xmlns:xlink="http://www.w3.org/1999/xlink" version="1.1" width="1000" height="1000" viewBox="0 0 1000 1000" xml:space="preserve">
<desc>Created with Fabric.js 3.5.0</desc>
<defs>
</defs>
<rect x="0" y="0" width="100%" height="100%" fill="#ffffff"/>
<g transform="matrix(0.0337 0 0 0.0337 100.9164 28.7573)" id="420668">
<g style="" vector-effect="non-scaling-stroke">
		<g transform="matrix(0.1333 0 0 -0.1333 -0.9402 -9.4352)">
<path style="stroke: none; stroke-width: 1; stroke-dasharray: none; stroke-linecap: butt; stroke-dashoffset: 0; stroke-linejoin: miter; stroke-miterlimit: 4; is-custom-font: none; font-file-url: none; fill: rgb(255,255,255); fill-rule: nonzero; opacity: 1;" transform=" translate(-5414.272, -6469.1947)" d="M 9675 12739 c -829 -21 -1586 -94 -2120 -205 c -798 -166 -1378 -476 -1935 -1034 c -352 -352 -553 -647 -740 -1085 c -73 -171 -107 -230 -135 -230 c -59 0 -57 155 9 619 c 64 449 79 594 80 806 c 1 269 -12 288 -192 277 c -164 -10 -338 -60 -687 -199 c -110 -43 -284 -104 -387 -134 c -102 -30 -204 -61 -225 -70 c -76 -32 -93 -67 -48 -102 c 13 -11 22 -22 19 -25 c -3 -3 -1 -14 5 -25 c 22 -42 120 -62 409 -82 c 153 -11 193 -22 231 -63 c 22 -25 24 -32 18 -99 c -11 -122 -127 -569 -220 -843 c -167 -492 -354 -802 -777 -1285 c -160 -182 -267 -320 -322 -412 c -46 -78 -79 -105 -195 -166 c -141 -72 -251 -106 -667 -201 c -369 -85 -457 -117 -644 -235 c -199 -124 -248 -144 -595 -247 c -131 -38 -263 -81 -293 -94 c -133 -59 -163 -116 -133 -254 c 54 -254 567 -429 1654 -565 c 290 -36 421 -47 689 -54 l 238 -7 l 32 -37 c 30 -34 35 -51 60 -196 c 57 -327 43 -389 -172 -767 c -241 -425 -325 -629 -379 -925 c -24 -131 -24 -446 0 -584 c 31 -178 87 -376 130 -466 c 50 -102 144 -203 255 -274 c 79 -50 92 -56 71 -28 c -8 10 10 -6 38 -37 c 29 -31 52 -61 50 -67 c -3 -15 97 -165 159 -239 c 143 -168 340 -255 580 -255 c 114 0 151 -14 179 -67 c 30 -56 26 -241 -13 -528 c -45 -331 -52 -415 -52 -624 c 1 -371 75 -710 239 -1079 c 41 -93 66 -139 87 -157 c 6 -5 27 -38 48 -71 c 79 -134 87 -94 25 132 c -65 237 -108 440 -120 564 c -13 145 0 315 47 604 c 82 507 70 654 -91 1172 c -14 43 -12 45 36 35 c 4 0 12 -13 18 -28 c 14 -36 116 -492 132 -591 c 6 -43 16 -82 21 -88 c 12 -16 11 -275 -2 -381 c -6 -49 -22 -160 -35 -248 c -48 -317 -54 -530 -19 -740 c 14 -85 26 -116 40 -103 c 3 4 14 96 25 205 c 26 280 42 364 120 632 c 86 293 97 354 93 551 c -4 311 -58 514 -196 748 c -49 84 -58 106 -47 113 c 23 15 36 10 62 -20 c 25 -31 86 -190 107 -281 c 28 -127 43 -180 51 -180 c 4 0 19 -36 34 -80 c 80 -241 77 -412 -15 -845 c -49 -229 -50 -239 -41 -253 c 10 -16 109 90 149 160 c 85 148 233 522 264 663 c 25 117 34 303 19 376 c -25 122 -101 238 -277 426 l -108 116 l 23 18 c 59 48 206 56 292 17 c 180 -83 421 -398 648 -848 c 154 -305 277 -597 576 -1370 c 143 -368 207 -518 228 -535 c 7 -5 23 -25 36 -42 c 74 -106 68 51 -14 387 c -44 179 -68 262 -206 710 c -285 932 -340 1261 -249 1513 c 74 204 200 326 455 442 c 478 217 657 336 940 626 c 150 154 304 337 298 355 c -2 6 7 19 19 30 c 22 19 23 19 8 -1 c -14 -18 -14 -19 2 -6 c 10 7 16 16 13 20 c -2 4 28 45 66 92 c 184 221 326 424 395 566 c 25 51 44 102 42 115 c -2 18 -23 -7 -97 -116 c -202 -295 -391 -525 -607 -736 c -192 -187 -341 -298 -524 -390 c -225 -113 -388 -154 -925 -235 c -507 -77 -572 -93 -1145 -285 c -535 -179 -753 -233 -990 -247 c -243 -14 -403 50 -638 253 c -188 161 -397 403 -500 580 c -85 144 -131 326 -117 467 c 11 114 63 170 121 132 c 50 -32 135 -180 209 -360 c 20 -49 50 -103 66 -120 l 30 -30 l 29 33 c 16 18 36 57 46 85 c 28 88 93 202 150 265 c 30 33 96 91 147 129 c 50 39 171 128 267 200 c 180 133 256 204 246 229 c -3 8 16 35 44 65 c 117 122 30 99 -355 -94 c -466 -233 -641 -275 -796 -190 c -63 34 -103 85 -119 154 c -26 109 5 204 170 526 c 115 225 170 343 175 377 c 2 12 19 59 38 106 c 19 47 54 139 77 205 c 23 66 46 125 50 130 c 12 15 76 256 99 370 c 54 269 64 415 36 533 c -27 113 -65 172 -248 383 c -55 63 -116 144 -138 180 c -104 178 -128 397 -60 544 c 11 22 33 70 50 106 c 44 95 91 149 255 293 c 193 170 308 299 475 534 c 198 279 334 549 417 825 c 28 95 116 503 178 832 c 99 519 146 720 188 799 c 16 31 28 77 17 71 c -5 -4 -9 -2 -9 4 c 0 19 62 71 98 81 c 46 12 153 13 133 1 c -26 -17 -2 -40 56 -56 c 155 -43 175 -55 241 -138 c 42 -54 -14 -457 -110 -791 c -123 -430 -246 -625 -499 -791 c -115 -76 -161 -114 -153 -127 c 3 -4 25 -8 48 -8 c 35 0 45 -4 49 -20 c 7 -28 58 -26 254 6 c 194 32 327 35 498 10 c 226 -32 272 -2 330 220 c 34 127 66 211 119 309 c 236 444 684 951 1149 1299 c 625 469 1221 645 2627 775 c 668 62 1229 85 1287 52 c 21 -11 -122 -58 -497 -162 c -506 -139 -709 -211 -1140 -402 c -426 -189 -502 -205 -810 -171 c -164 17 -263 13 -373 -17 c -221 -61 -523 -266 -820 -558 c -179 -175 -283 -297 -492 -576 c -87 -115 -187 -245 -222 -287 c -136 -164 -268 -260 -455 -334 c -53 -21 -95 -41 -92 -45 c 2 -4 26 -11 52 -14 c 70 -10 80 -14 78 -32 c -2 -32 47 -42 240 -53 c 480 -26 650 -62 1098 -231 c 334 -127 491 -183 641 -229 c 210 -64 224 -73 125 -83 c -153 -16 -337 -85 -403 -150 c -41 -41 -67 -114 -67 -186 c 0 -114 70 -461 122 -611 c 75 -214 175 -328 230 -262 c 42 51 46 99 22 272 c -23 166 -17 241 26 326 c 28 55 45 74 84 99 c 47 29 54 30 160 30 c 118 0 189 -17 301 -73 c 168 -83 335 -241 335 -317 c 0 -81 -176 -251 -388 -373 c -182 -106 -177 -94 -118 -256 c 5 -17 89 -111 186 -211 c 202 -209 302 -335 507 -635 c 350 -513 533 -713 767 -835 c 71 -37 129 -50 90 -20 c -10 8 100 -43 246 -114 c 360 -175 423 -200 205 -80 c -234 129 -451 288 -604 440 c -115 115 -181 203 -374 494 c -165 251 -262 378 -419 555 c -123 138 -178 209 -178 226 c 0 33 47 79 194 188 c 232 174 299 256 326 403 c 23 126 2 173 -221 509 c -233 351 -329 464 -476 558 c -101 65 -190 101 -588 238 c -816 281 -989 356 -1011 443 c -25 101 176 415 470 734 c 355 387 739 662 1281 919 c 266 125 397 177 1010 397 c 510 183 668 247 698 283 c 10 13 8 14 -18 8 c -59 -15 -17 4 153 68 c 142 54 176 64 197 56 c 37 -14 113 5 182 46 c 64 39 83 58 83 87 c 0 10 9 30 20 44 c 67 85 -44 118 -450 133 c -135 5 -252 9 -260 8 c -8 -1 -145 -5 -305 -9 z m -7422 -4536 c -13 -2 -23 -8 -23 -13 c 0 -17 40 -20 129 -10 c 72 9 96 9 118 -2 c 28 -13 28 -14 35 -138 c 4 -69 11 -147 16 -175 l 8 -50 l -60 30 c -58 29 -66 30 -186 29 c -133 -1 -281 -23 -520 -76 c -122 -27 -230 -58 -567 -163 c -192 -59 -414 -95 -592 -95 l -64 0 l 19 21 c 10 12 36 30 57 41 c 53 26 40 34 -23 13 c -28 -9 -53 -15 -55 -13 c -4 4 302 105 345 115 c 8 2 -3 -5 -25 -16 c -38 -19 -39 -20 -12 -20 c 84 -3 384 87 527 157 c 94 47 380 221 380 232 c 0 4 -10 6 -22 3 c -20 -4 -21 -3 -6 6 c 37 24 471 131 523 129 c 17 -1 16 -1 -2 -5 z m 5087 -3956 c 0 -2 -17 -19 -37 -38 l -38 -34 l 34 38 c 33 34 41 42 41 34 z m -4519 -924 c 13 -16 12 -17 -3 -4 c -17 13 -22 21 -14 21 c 2 0 10 -8 17 -17 z" stroke-linecap="round"/>
</g>
		<g transform="matrix(0.1333 0 0 -0.1333 80.0768 -184.1411)">
<path style="stroke: none; stroke-width: 1; stroke-dasharray: none; stroke-linecap: butt; stroke-dashoffset: 0; stroke-linejoin: miter; stroke-miterlimit: 4; is-custom-font: none; font-file-url: none; fill: rgb(255,255,255); fill-rule: nonzero; opacity: 1;" transform=" translate(-6020.7702, -7780.973)" d="M 5797 8105 c -27 -7 -73 -26 -104 -41 c -139 -68 -478 -386 -446 -418 c 4 -3 20 -6 36 -6 c 17 0 27 -3 24 -7 c -4 -3 -2 -12 5 -20 c 9 -11 39 -12 152 -7 c 164 8 183 4 397 -82 c 171 -68 257 -87 369 -81 c 152 8 322 86 453 207 c 62 57 107 123 93 137 c -2 3 2 21 11 40 c 39 94 -33 138 -347 217 c -283 72 -523 94 -643 61 z" stroke-linecap="round"/>
</g>
</g>
</g>
</svg>